<svg id="Flat" height="512" viewBox="0 0 512 512" width="512" xmlns="http://www.w3.org/2000/svg">
  <path
    d="m411.853 270.869c-34.853-11.378-76.783-14.434-108.162-14.824v-.09c31.379-.39 73.31-3.446 108.162-14.824 16.8-3.7 33.566-12.68 47.547-26.661 33.442-33.442 38.253-82.85 10.745-110.358-11.778-11.778-27.572-17.631-44.409-17.848-.217-16.836-6.07-32.631-17.848-44.409-27.508-27.508-76.917-22.697-110.358 10.745-13.981 13.98-22.958 30.752-26.661 47.547-11.378 34.853-14.434 76.783-14.824 108.162h-.09c-.39-31.379-3.446-73.311-14.824-108.162-3.7-16.8-12.68-33.567-26.661-47.547-33.441-33.442-82.85-38.253-110.358-10.745-11.778 11.778-17.631 27.573-17.848 44.409-16.837.217-32.631 6.07-44.409 17.848-27.508 27.508-22.697 76.916 10.745 110.358 13.981 13.981 30.752 22.957 47.547 26.661 34.853 11.378 76.783 14.434 108.162 14.824v.09c-31.379.39-73.31 3.446-108.162 14.824-16.8 3.7-33.566 12.68-47.547 26.661-33.442 33.442-38.253 82.85-10.745 110.358 11.778 11.778 27.572 17.631 44.409 17.848.217 16.837 6.07 32.631 17.848 44.409 27.508 27.508 76.917 22.7 110.358-10.745 13.981-13.98 22.958-30.752 26.661-47.547 11.378-34.853 14.434-76.783 14.824-108.162h.09c.39 31.379 3.446 73.311 14.824 108.162 3.7 16.8 12.68 33.567 26.661 47.547 33.441 33.442 82.85 38.253 110.358 10.745 11.778-11.778 17.631-27.572 17.848-44.409 16.837-.217 32.631-6.07 44.409-17.848 27.508-27.508 22.7-76.916-10.745-110.358-13.981-13.981-30.752-22.957-47.547-26.661z"
    fill="#ffffff"
  />
  <path
    d="m380.683 267.9c-27.882-9.1-61.427-11.547-86.53-11.859v-.072c25.1-.312 58.648-2.757 86.53-11.859a78.084 78.084 0 0 0 38.037-21.329c26.754-26.753 30.6-66.28 8.6-88.286-9.422-9.423-22.058-14.105-35.527-14.278-.174-13.47-4.856-26.106-14.279-35.528-22.006-22.006-61.533-18.158-88.286 8.6a78.084 78.084 0 0 0 -21.328 38.028c-9.1 27.882-11.547 61.427-11.859 86.53h-.072c-.312-25.1-2.757-58.648-11.859-86.53a78.084 78.084 0 0 0 -21.334-38.037c-26.753-26.754-66.28-30.6-88.286-8.6-9.423 9.422-14.105 22.058-14.279 35.528-13.469.173-26.105 4.855-35.527 14.278-22.006 22.006-18.158 61.533 8.6 88.286a78.084 78.084 0 0 0 38.037 21.329c27.882 9.1 61.427 11.547 86.53 11.859v.072c-25.1.312-58.648 2.757-86.53 11.859a78.084 78.084 0 0 0 -38.041 21.333c-26.754 26.753-30.6 66.28-8.6 88.286 9.422 9.423 22.058 14.105 35.527 14.278.174 13.47 4.856 26.1 14.279 35.528 22.006 22.006 61.533 18.158 88.286-8.6a78.084 78.084 0 0 0 21.329-38.037c9.1-27.882 11.547-61.427 11.859-86.53h.072c.312 25.1 2.757 58.648 11.859 86.53a78.084 78.084 0 0 0 21.329 38.037c26.753 26.754 66.28 30.6 88.286 8.6 9.423-9.423 14.105-22.058 14.279-35.528 13.469-.173 26.105-4.855 35.527-14.278 22.006-22.006 18.158-61.533-8.6-88.286a78.084 78.084 0 0 0 -38.029-21.324z"
    fill="#ffffff"
  />
</svg>